<svg width="200" height="100" xmlns="http://www.w3.org/2000/svg" version="1.1" fill="none" stroke-linecap="square" stroke-miterlimit="10">
 <clipPath id="p.0">
  <path d="m0,0l1152,0l0,864l-1152,0l0,-864z" clip-rule="nonzero" id="svg_1"/>
 </clipPath>

 <g>
  <title>Layer 1</title>
  <g id="svg_27">
   <path fill="#000000" fill-opacity="0" d="m9.86502,16.70641l46.99213,49.00787" fill-rule="evenodd" id="svg_4" stroke="null"/>
   <path stroke-linejoin="round" d="m9.86502,16.70641l46.99213,49.00787" fill-rule="evenodd" id="svg_5" stroke="#000000"/>
   <path fill="#000000" fill-opacity="0" d="m56.85715,65.71428l88,0" fill-rule="evenodd" id="svg_6" stroke="null"/>
   <path stroke-linejoin="round" d="m56.85715,65.71428l88,0" fill-rule="evenodd" id="svg_7" stroke="#000000"/>
   <path fill="#000000" fill-opacity="0" d="m144.85715,65.71428l46.99213,-49.00787" fill-rule="evenodd" id="svg_8" stroke="null"/>
   <path stroke-linejoin="round" d="m144.85715,65.71428l46.99213,-49.00787" fill-rule="evenodd" id="svg_9" stroke="#000000"/>
   <path fill="#000000" fill-opacity="0" d="m175.53696,39.28909l0.69293,23.24411" fill-rule="evenodd" id="svg_10" stroke="null"/>
   <path stroke-linejoin="round" stroke-dasharray="1.0,3.0" d="m175.53696,39.28909l0.69293,23.24411" fill-rule="evenodd" id="svg_11" stroke="#000000"/>
   <path fill="#000000" fill-opacity="0" d="m176.30069,59.58565l-30.29919,0.25199" fill-rule="evenodd" id="svg_12" stroke="null"/>
   <path stroke-linejoin="round" stroke-dasharray="1.0,3.0" d="m176.30069,59.58565l-30.29919,0.25199" fill-rule="evenodd" id="svg_13" stroke="#000000"/>
   <path fill="#000000" fill-opacity="0" d="m149.64194,56.03452l29.98425,0l0,43.99999l-29.98425,0l0,-43.99999z" fill-rule="evenodd" id="svg_14" stroke="null"/>
   <path fill="#000000" d="m158.84506,75.2745l0,-0.76563l3.51563,-4.03125q-0.59375,0.03125 -1.04688,0.03125l-2.25,0l0,-0.76563l4.51563,0l0,0.625l-3,3.5l-0.57813,0.64063q0.64063,-0.04688 1.1875,-0.04688l2.54688,0l0,0.8125l-4.89063,0l0,0.00001z" fill-rule="nonzero" id="svg_15" stroke="null"/>
   <path fill="#000000" fill-opacity="0" d="m173.06711,36.3521l29.98425,0l0,44l-29.98425,0l0,-44z" fill-rule="evenodd" id="svg_16" stroke="null"/>
   <path fill="#000000" d="m186.03586,55.59209l-0.9375,0l0,-5.96875q-0.34375,0.32813 -0.89063,0.65625q-0.54689,0.3125 -0.98439,0.46875l0,-0.90625q0.79689,-0.35938 1.375,-0.89063q0.59375,-0.53128 0.82814,-1.01566l0.60938,0l0,7.65628l0,0.00001z" fill-rule="nonzero" id="svg_17" stroke="null"/>
   <path fill="#000000" fill-opacity="0" d="m75.85715,65.71428l53.98425,0l0,44l-53.98425,0l0,-44z" fill-rule="evenodd" id="svg_18" stroke="null"/>
   <path fill="#000000" d="m85.3259,84.95431l1.59375,-7.625l2.35938,0q0.64063,0 0.95313,0.04688q0.51563,0.09372 0.85938,0.3125q0.35938,0.21875 0.54688,0.60938q0.20313,0.375 0.20313,0.84372q0,0.62503 -0.35938,1.10941q-0.34375,0.46872 -1.04688,0.71872q0.60938,0.20313 0.92188,0.625q0.3125,0.40625 0.3125,0.93753q0,0.64059 -0.375,1.21872q-0.35938,0.57816 -0.95313,0.89066q-0.59375,0.3125 -1.32813,0.3125l-3.6875,0l-0.00002,-0.00002zm1.9375,-4.375l1.53125,0q1.10938,0 1.59375,-0.34378q0.5,-0.35934 0.5,-1.03125q0,-0.32809 -0.15625,-0.56247q-0.15625,-0.23438 -0.40625,-0.34375q-0.25,-0.10941 -0.95313,-0.10941l-1.625,0l-0.48438,2.39066l0.00001,0zm-0.73438,3.51563l1.73438,0q0.6875,0 0.92188,-0.04691q0.48438,-0.09372 0.78125,-0.28122q0.3125,-0.20313 0.48438,-0.53128q0.17188,-0.32809 0.17188,-0.68747q0,-0.53128 -0.34375,-0.8125q-0.32813,-0.28125 -1.26563,-0.28125l-1.9375,0l-0.54688,2.64063l-0.00001,0zm6.84204,0.85938l-0.57813,-5.53125l0.90625,0l0.25,2.48438l0.09375,1.39063q0.01563,0.15625 0.03125,0.64059q0.15619,-0.53122 0.26563,-0.8125q0.10938,-0.29688 0.34375,-0.81247l1.32813,-2.89063l1.01563,0l0.1875,2.76559q0.04688,0.625 0.04688,1.68753q0.26563,-0.70316 0.85938,-1.93753l1.18744,-2.51559l0.93756,0l-2.70313,5.53125l-0.98438,0l-0.20319,-3.23441q-0.01556,-0.31247 -0.03119,-1.18747q-0.21875,0.5625 -0.5,1.20313l-1.46881,3.21875l-0.98431,0l-0.00001,0z" fill-rule="nonzero" id="svg_19" stroke="null"/>
   <path fill="#000000" fill-opacity="0" d="m26.45822,29.42821l149.7638,-0.03152" fill-rule="evenodd" id="svg_20" stroke="null"/>
   <path stroke-linejoin="round" stroke-dasharray="4.0,3.0" d="m26.45822,29.42821l149.7638,-0.03152" fill-rule="evenodd" id="svg_21" stroke="#000000"/>
   <path fill="#000000" fill-opacity="0" d="m64.85715,65.71428l-0.97638,-31.9685" fill-rule="evenodd" id="svg_22" stroke="null"/>
   <path stroke-linejoin="round" d="m64.85715,65.71428l-0.87177,-28.54303" fill-rule="evenodd" id="svg_23" stroke="#000000"/>
   <path fill="#000000" d="m63.98538,37.17126l1.15839,1.08972l-1.21838,-3.05396l-1.02972,3.12262l1.08972,-1.15839l-0.00001,0.00001z" fill-rule="evenodd" id="svg_24" stroke="#000000"/>
   <path fill="#000000" fill-opacity="0" d="m69.75479,28.83501l53.98425,0l0,44l-53.98425,0l0,-44z" fill-rule="evenodd" id="svg_25" stroke="null"/>
   <path fill="#000000" d="m79.11417,48.07504l1.59375,-7.62503l0.9375,0l-0.60938,2.9219q0.51563,-0.50003 0.96875,-0.71875q0.45313,-0.23441 0.9375,-0.23441q0.6875,0 1.0625,0.37503q0.39063,0.35934 0.39063,0.95309q0,0.28125 -0.17188,1.06253l-0.6875,3.26563l-0.9375,0l0.70313,-3.34376q0.15625,-0.7344 0.15625,-0.92187q0,-0.26566 -0.1875,-0.4375q-0.1875,-0.17188 -0.54688,-0.17188q-0.51563,0 -0.98438,0.2656q-0.45313,0.26565 -0.71875,0.7344q-0.25,0.46875 -0.46875,1.49997l-0.5,2.37504l-0.9375,0l0.00001,0.00001z" fill-rule="nonzero" id="svg_26" stroke="null"/>
  </g>
 </g>
</svg>